<mxfile host="65bd71144e">
    <diagram id="Zj3-93L6mgxk9kNFKD07" name="Page-1">
        <mxGraphModel dx="1154" dy="510" grid="1" gridSize="10" guides="1" tooltips="1" connect="1" arrows="1" fold="1" page="1" pageScale="1" pageWidth="827" pageHeight="1169" math="0" shadow="0">
            <root>
                <mxCell id="0"/>
                <mxCell id="1" parent="0"/>
                <mxCell id="22" style="edgeStyle=none;html=1;entryX=0.5;entryY=0;entryDx=0;entryDy=0;" parent="1" source="2" target="5" edge="1">
                    <mxGeometry relative="1" as="geometry"/>
                </mxCell>
                <mxCell id="2" value="auth&lt;br&gt;isauth" style="ellipse;whiteSpace=wrap;html=1;" parent="1" vertex="1">
                    <mxGeometry x="50" y="930" width="120" height="50" as="geometry"/>
                </mxCell>
                <mxCell id="12" style="edgeStyle=none;html=1;entryX=0.625;entryY=0.967;entryDx=0;entryDy=0;entryPerimeter=0;exitX=1;exitY=0.5;exitDx=0;exitDy=0;" parent="1" source="4" target="7" edge="1">
                    <mxGeometry relative="1" as="geometry"/>
                </mxCell>
                <mxCell id="4" value="/login&lt;br&gt;&amp;lt;Login&amp;gt;" style="ellipse;whiteSpace=wrap;html=1;dashed=1;" parent="1" vertex="1">
                    <mxGeometry x="50" y="1100" width="120" height="50" as="geometry"/>
                </mxCell>
                <mxCell id="10" value="" style="group" parent="1" vertex="1" connectable="0">
                    <mxGeometry x="60" y="1010" width="130" height="70" as="geometry"/>
                </mxCell>
                <mxCell id="5" value="isAuthorized" style="rhombus;whiteSpace=wrap;html=1;" parent="10" vertex="1">
                    <mxGeometry width="100" height="50" as="geometry"/>
                </mxCell>
                <mxCell id="6" value="false" style="text;html=1;align=center;verticalAlign=middle;resizable=0;points=[];autosize=1;strokeColor=none;fillColor=none;" parent="10" vertex="1">
                    <mxGeometry x="25" y="40" width="50" height="30" as="geometry"/>
                </mxCell>
                <mxCell id="7" value="true" style="text;html=1;align=center;verticalAlign=middle;resizable=0;points=[];autosize=1;strokeColor=none;fillColor=none;" parent="10" vertex="1">
                    <mxGeometry x="90" y="10" width="40" height="30" as="geometry"/>
                </mxCell>
                <mxCell id="11" style="edgeStyle=none;html=1;" parent="1" source="6" target="4" edge="1">
                    <mxGeometry relative="1" as="geometry"/>
                </mxCell>
                <mxCell id="19" style="edgeStyle=none;html=1;entryX=0;entryY=0.25;entryDx=0;entryDy=0;" parent="1" source="7" target="15" edge="1">
                    <mxGeometry relative="1" as="geometry">
                        <mxPoint x="250" y="1080" as="targetPoint"/>
                    </mxGeometry>
                </mxCell>
                <mxCell id="21" value="" style="edgeStyle=none;html=1;entryX=0.25;entryY=1;entryDx=0;entryDy=0;" parent="1" source="7" target="35" edge="1">
                    <mxGeometry relative="1" as="geometry">
                        <mxPoint x="212.5" y="960" as="targetPoint"/>
                        <Array as="points"/>
                    </mxGeometry>
                </mxCell>
                <mxCell id="23" style="edgeStyle=none;html=1;" parent="1" source="7" edge="1">
                    <mxGeometry relative="1" as="geometry">
                        <mxPoint x="315" y="997.8205128205129" as="targetPoint"/>
                    </mxGeometry>
                </mxCell>
                <mxCell id="33" value="" style="group" parent="1" vertex="1" connectable="0">
                    <mxGeometry x="260" y="1040" width="116" height="100" as="geometry"/>
                </mxCell>
                <UserObject label="&lt;br&gt;&lt;br&gt;See in&lt;br&gt;components&lt;br&gt;directory" id="15">
                    <mxCell style="shape=ext;double=1;rounded=1;whiteSpace=wrap;html=1;" parent="33" vertex="1">
                        <mxGeometry width="116" height="100" as="geometry"/>
                    </mxCell>
                </UserObject>
                <mxCell id="16" value="&amp;lt;Footer&amp;gt;" style="rounded=0;whiteSpace=wrap;html=1;" parent="33" vertex="1">
                    <mxGeometry x="20" width="54.84" height="37.92" as="geometry"/>
                </mxCell>
                <mxCell id="34" value="" style="group" vertex="1" connectable="0" parent="1">
                    <mxGeometry x="190" y="840" width="110" height="100" as="geometry"/>
                </mxCell>
                <UserObject label="&lt;br&gt;&lt;br&gt;See in&lt;br&gt;components&lt;br&gt;directory" id="35">
                    <mxCell style="shape=ext;double=1;rounded=1;whiteSpace=wrap;html=1;" vertex="1" parent="34">
                        <mxGeometry width="110.00000000000001" height="100" as="geometry"/>
                    </mxCell>
                </UserObject>
                <mxCell id="36" value="&amp;lt;Header&amp;gt;" style="rounded=0;whiteSpace=wrap;html=1;" vertex="1" parent="34">
                    <mxGeometry x="18.96551724137931" width="52.00344827586208" height="37.92" as="geometry"/>
                </mxCell>
                <mxCell id="37" value="" style="group" vertex="1" connectable="0" parent="1">
                    <mxGeometry x="320" y="920" width="170" height="110" as="geometry"/>
                </mxCell>
                <UserObject label="&lt;br&gt;&lt;br&gt;See in&lt;br&gt;components&lt;br&gt;directory" id="38">
                    <mxCell style="shape=ext;double=1;rounded=1;whiteSpace=wrap;html=1;" vertex="1" parent="37">
                        <mxGeometry width="151.6923076923077" height="110.00000000000001" as="geometry"/>
                    </mxCell>
                </UserObject>
                <mxCell id="39" value="&amp;lt;ListDescription&amp;gt;" style="rounded=0;whiteSpace=wrap;html=1;" vertex="1" parent="37">
                    <mxGeometry x="10" width="120" height="41.712" as="geometry"/>
                </mxCell>
            </root>
        </mxGraphModel>
    </diagram>
</mxfile>